<svg width="254" height="60" viewBox="0 0 254 60" fill="none" xmlns="http://www.w3.org/2000/svg">
<g clip-path="url(#clip0_88415_3419)">
<path d="M4.95672 6.10352e-05H0V35.7987H4.95672V22.5177C4.95672 20.271 5.51557 18.4985 6.63326 17.2503C7.75095 16.0021 9.2817 15.353 11.1769 15.353C12.8049 15.353 14.1655 15.9522 15.2589 17.1005C16.3523 18.2738 16.9112 19.7467 16.9112 21.5192V35.8236H21.8922V21.5192C21.8922 18.2239 20.9932 15.6276 19.1951 13.6804C17.3971 11.7332 15.0402 10.7596 12.1731 10.7596C11.347 10.7596 10.5209 10.8595 9.71906 11.0841C8.89294 11.3088 8.2369 11.5585 7.70235 11.8331C7.16781 12.1077 6.65756 12.4072 6.1959 12.7567C5.73424 13.1062 5.41838 13.3559 5.27259 13.5057C5.1268 13.6555 5.00532 13.7553 4.95672 13.8302V6.10352e-05Z" fill="#F0145A"/>
<path d="M32.9727 0H27.8628V35.7689H32.9727V0Z" fill="#323264"/>
<path d="M63.1115 25.2931L63.367 22.7382C63.367 19.3146 62.2428 16.4531 59.9434 14.1537C57.6439 11.8543 54.7824 10.7301 51.3588 10.7301C47.9352 10.7301 44.9715 11.9565 42.5188 14.4092C40.0661 16.8619 38.8397 19.7745 38.8397 23.2492C38.8397 26.8261 40.1172 29.892 42.621 32.4469C45.1248 35.0018 48.1396 36.2793 51.6143 36.2793C52.9429 36.2793 54.1692 36.0749 55.3956 35.7172C56.622 35.3084 57.6439 34.8996 58.3593 34.4909C59.1258 34.031 59.8923 33.52 60.5565 32.9579C61.2208 32.3958 61.6807 31.987 61.8851 31.7315C62.0895 31.4761 62.2428 31.3228 62.345 31.1695L59.0236 27.8481L58.2571 28.8189C57.7461 29.4321 56.8775 30.0453 55.6511 30.7096C54.3736 31.3739 53.0451 31.6804 51.6143 31.6804C49.6215 31.6804 47.9352 31.0673 46.5045 29.7898C45.0737 28.5123 44.2051 27.0305 43.9496 25.2931H63.1115ZM51.3588 15.0735C53.2495 15.0735 54.7824 15.6355 56.0599 16.7086C57.2862 17.8328 58.0527 19.2124 58.3593 20.9498H44.154C44.6138 19.2124 45.4314 17.8328 46.7089 16.7086C47.9352 15.6355 49.5193 15.0735 51.3588 15.0735Z" fill="#323264"/>
<path d="M86.9429 34.2865C86.9429 36.5348 86.2786 38.3743 84.899 39.8051C83.5704 41.1847 81.8842 41.9001 79.7891 41.9001C78.8694 41.9001 77.9496 41.7468 77.0809 41.4913C76.2122 41.2358 75.548 40.9292 74.9859 40.5715C74.4238 40.2139 73.9128 39.8562 73.4018 39.3963C72.9419 38.9364 72.6354 38.6298 72.4821 38.4765C72.3288 38.3232 72.2266 38.1699 72.1244 38.0677L68.803 41.3891L69.2118 41.9001C69.4673 42.2578 69.9271 42.7177 70.5403 43.2287C71.1535 43.6885 71.8689 44.1995 72.6865 44.7105C73.504 45.1704 74.526 45.5792 75.8035 45.9369C77.0809 46.2946 78.4095 46.499 79.7891 46.499C83.2638 46.499 86.1253 45.3237 88.5269 42.9732C90.8775 40.5716 92.0527 37.71 92.0527 34.2354V11.2411H86.9429V13.796L86.0742 13.0295C85.5121 12.5185 84.6435 12.0076 83.4171 11.4966C82.1907 10.9856 80.8622 10.7301 79.5336 10.7301C76.4166 10.7301 73.7595 11.9054 71.4601 14.307C69.1607 16.7086 68.0365 19.5701 68.0365 22.9937C68.0365 26.4173 69.1607 29.2788 71.4601 31.6804C73.7595 34.0821 76.4166 35.2573 79.5336 35.2573C80.4023 35.2573 81.2199 35.1551 82.0885 34.9507C82.9061 34.6952 83.5704 34.4397 84.1325 34.1843C84.6946 33.9288 85.2055 33.6222 85.6654 33.2645C86.1253 32.9068 86.483 32.6513 86.5852 32.5491L86.9429 32.1914V34.2865ZM73.1463 22.9937C73.1463 20.8476 73.8106 19.0591 75.1903 17.5773C76.5699 16.0954 78.2051 15.329 80.0446 15.329C81.8842 15.329 83.5193 16.0954 84.899 17.5773C86.2275 19.0591 86.9429 20.8476 86.9429 22.9937C86.9429 25.1398 86.2275 26.9283 84.899 28.4101C83.5193 29.892 81.8842 30.6585 80.0446 30.6585C78.2051 30.6585 76.5699 29.892 75.1903 28.4101C73.8106 26.9283 73.1463 25.1398 73.1463 22.9937Z" fill="#323264"/>
<path d="M118.724 35.7683V19.9278C118.724 17.3218 117.753 15.1246 115.863 13.3872C113.972 11.5988 111.519 10.7301 108.504 10.7301C107.329 10.7301 106.154 10.8834 105.03 11.19C103.906 11.5477 102.986 11.9054 102.322 12.3142C101.657 12.7229 100.993 13.1828 100.38 13.7449C99.7666 14.2559 99.409 14.6136 99.2046 14.818C99.0513 15.0224 98.898 15.1757 98.7958 15.329L102.117 18.6504L102.781 17.7817C103.19 17.2196 103.906 16.7086 104.979 16.1465C106.052 15.5845 107.227 15.329 108.504 15.329C109.986 15.329 111.213 15.7888 112.184 16.6575C113.154 17.5262 113.614 18.6504 113.614 19.9278L104.672 21.4608C102.475 21.8185 100.686 22.6871 99.46 24.0668C98.1826 25.4464 97.5183 27.1327 97.5183 29.1255C97.5183 31.0162 98.3359 32.6513 99.971 34.0821C101.657 35.5639 103.701 36.2793 106.205 36.2793C107.074 36.2793 107.891 36.1771 108.709 35.9216C109.578 35.7172 110.242 35.4617 110.804 35.2062C111.366 34.9507 111.877 34.6442 112.337 34.2865C112.797 33.9288 113.103 33.6733 113.308 33.5711C113.461 33.4178 113.563 33.2645 113.614 33.2134V35.7683H118.724ZM106.972 31.6804C105.643 31.6804 104.57 31.3739 103.803 30.7607C102.986 30.1475 102.628 29.4321 102.628 28.6145C102.628 27.7459 102.884 26.9794 103.446 26.4173C104.008 25.8552 104.774 25.4464 105.694 25.2931L113.614 24.0157V24.5267C113.614 26.8261 113.052 28.5634 111.877 29.8409C110.702 31.0673 109.067 31.6804 106.972 31.6804Z" fill="#323264"/>
<path d="M130 0H124.89V35.7689H130V0Z" fill="#323264"/>
<path d="M0 53.1185H1.59915V58.7253H5.06396V60.0283H0V53.1185Z" fill="#323264"/>
<path d="M15.5016 58.5477H12.2934L11.6814 60.0283H10.0428L13.1226 53.1185H14.702L17.7917 60.0283H16.1136L15.5016 58.5477ZM14.9982 57.3335L13.9025 54.688L12.8067 57.3335H14.9982Z" fill="#323264"/>
<path d="M33.5121 53.1185L31.2516 60.0283H29.534L28.0138 55.3494L26.4443 60.0283H24.7366L22.4662 53.1185H24.1245L25.6842 57.9751L27.313 53.1185H28.7937L30.3731 58.0146L31.9821 53.1185H33.5121Z" fill="#323264"/>
<path d="M50.5232 60.1468C49.819 60.1468 49.1807 59.9954 48.6082 59.6927C48.0422 59.3834 47.5947 58.959 47.2657 58.4193C46.9432 57.8731 46.782 57.2578 46.782 56.5734C46.782 55.889 46.9432 55.277 47.2657 54.7373C47.5947 54.1911 48.0422 53.7667 48.6082 53.464C49.1807 53.1547 49.8223 53 50.5331 53C51.1319 53 51.6716 53.1053 52.152 53.3159C52.6389 53.5265 53.047 53.8292 53.376 54.224L52.3494 55.1717C51.8821 54.6321 51.303 54.3622 50.612 54.3622C50.1843 54.3622 49.8026 54.4577 49.467 54.6485C49.1313 54.8328 48.8681 55.0927 48.6773 55.4283C48.493 55.764 48.4009 56.1456 48.4009 56.5734C48.4009 57.0012 48.493 57.3828 48.6773 57.7185C48.8681 58.0541 49.1313 58.3173 49.467 58.5082C49.8026 58.6924 50.1843 58.7846 50.612 58.7846C51.303 58.7846 51.8821 58.5115 52.3494 57.9653L53.376 58.9129C53.047 59.3143 52.6389 59.6203 52.152 59.8309C51.665 60.0415 51.1221 60.1468 50.5232 60.1468Z" fill="#323264"/>
<path d="M62.5933 60.1468C61.876 60.1468 61.2278 59.9922 60.6487 59.6829C60.0761 59.3736 59.6253 58.9491 59.2963 58.4095C58.9738 57.8632 58.8126 57.2512 58.8126 56.5734C58.8126 55.8956 58.9738 55.2868 59.2963 54.7472C59.6253 54.201 60.0761 53.7733 60.6487 53.464C61.2278 53.1547 61.876 53 62.5933 53C63.3106 53 63.9555 53.1547 64.5281 53.464C65.1006 53.7733 65.5514 54.201 65.8804 54.7472C66.2095 55.2868 66.374 55.8956 66.374 56.5734C66.374 57.2512 66.2095 57.8632 65.8804 58.4095C65.5514 58.9491 65.1006 59.3736 64.5281 59.6829C63.9555 59.9922 63.3106 60.1468 62.5933 60.1468ZM62.5933 58.7846C63.0013 58.7846 63.3698 58.6924 63.6989 58.5082C64.0279 58.3173 64.2846 58.0541 64.4688 57.7185C64.6597 57.3828 64.7551 57.0012 64.7551 56.5734C64.7551 56.1456 64.6597 55.764 64.4688 55.4283C64.2846 55.0927 64.0279 54.8328 63.6989 54.6485C63.3698 54.4577 63.0013 54.3622 62.5933 54.3622C62.1853 54.3622 61.8168 54.4577 61.4877 54.6485C61.1587 54.8328 60.8987 55.0927 60.7079 55.4283C60.5236 55.764 60.4315 56.1456 60.4315 56.5734C60.4315 57.0012 60.5236 57.3828 60.7079 57.7185C60.8987 58.0541 61.1587 58.3173 61.4877 58.5082C61.8168 58.6924 62.1853 58.7846 62.5933 58.7846Z" fill="#323264"/>
<path d="M78.7995 60.0283L78.7896 55.8824L76.7561 59.2979H76.0355L74.0119 55.9713V60.0283H72.5115V53.1185H73.8342L76.4205 57.4125L78.9673 53.1185H80.2802L80.2999 60.0283H78.7995Z" fill="#323264"/>
<path d="M89.8659 53.1185C90.478 53.1185 91.0077 53.2205 91.4552 53.4245C91.9093 53.6285 92.2581 53.918 92.5016 54.2931C92.7451 54.6682 92.8668 55.1125 92.8668 55.6258C92.8668 56.1325 92.7451 56.5767 92.5016 56.9584C92.2581 57.3335 91.9093 57.623 91.4552 57.8271C91.0077 58.0245 90.478 58.1232 89.8659 58.1232H88.4741V60.0283H86.8749V53.1185H89.8659ZM89.7771 56.8202C90.2575 56.8202 90.6227 56.7182 90.8728 56.5142C91.1229 56.3036 91.2479 56.0074 91.2479 55.6258C91.2479 55.2375 91.1229 54.9414 90.8728 54.7373C90.6227 54.5268 90.2575 54.4215 89.7771 54.4215H88.4741V56.8202H89.7771Z" fill="#323264"/>
<path d="M103.148 58.5477H99.9396L99.3276 60.0283H97.6889L100.769 53.1185H102.348L105.438 60.0283H103.76L103.148 58.5477ZM102.644 57.3335L101.549 54.688L100.453 57.3335H102.644Z" fill="#323264"/>
<path d="M117.428 53.1185V60.0283H116.115L112.67 55.8331V60.0283H111.09V53.1185H112.413L115.848 57.3137V53.1185H117.428Z" fill="#323264"/>
<path d="M127.315 57.5803V60.0283H125.716V57.5605L123.041 53.1185H124.739L126.585 56.1884L128.43 53.1185H130L127.315 57.5803Z" fill="#323264"/>
<path fill-rule="evenodd" clip-rule="evenodd" d="M149.175 0H155L139.825 47H134L149.175 0Z" fill="#F0145A"/>
<path d="M168.54 35.18C166.764 35.18 165.396 34.7 164.436 33.74C163.476 32.78 162.996 31.424 162.996 29.672V11.924H165.552V29.528C165.552 30.632 165.828 31.484 166.38 32.084C166.956 32.684 167.772 32.984 168.828 32.984C169.956 32.984 170.892 32.66 171.636 32.012L172.536 33.848C172.032 34.304 171.42 34.64 170.7 34.856C170.004 35.072 169.284 35.18 168.54 35.18ZM159.612 18.224V16.1H171.312V18.224H159.612ZM184.549 35.18C182.581 35.18 180.853 34.772 179.365 33.956C177.877 33.116 176.713 31.976 175.873 30.536C175.033 29.072 174.613 27.404 174.613 25.532C174.613 23.66 175.009 22.004 175.801 20.564C176.617 19.124 177.721 17.996 179.113 17.18C180.529 16.34 182.113 15.92 183.865 15.92C185.641 15.92 187.213 16.328 188.581 17.144C189.973 17.936 191.065 19.064 191.857 20.528C192.649 21.968 193.045 23.636 193.045 25.532C193.045 25.652 193.033 25.784 193.009 25.928C193.009 26.048 193.009 26.18 193.009 26.324H176.557V24.416H191.641L190.633 25.172C190.633 23.804 190.333 22.592 189.733 21.536C189.157 20.456 188.365 19.616 187.357 19.016C186.349 18.416 185.185 18.116 183.865 18.116C182.569 18.116 181.405 18.416 180.373 19.016C179.341 19.616 178.537 20.456 177.961 21.536C177.385 22.616 177.097 23.852 177.097 25.244V25.64C177.097 27.08 177.409 28.352 178.033 29.456C178.681 30.536 179.569 31.388 180.697 32.012C181.849 32.612 183.157 32.912 184.621 32.912C185.773 32.912 186.841 32.708 187.825 32.3C188.833 31.892 189.697 31.268 190.417 30.428L191.857 32.084C191.017 33.092 189.961 33.86 188.689 34.388C187.441 34.916 186.061 35.18 184.549 35.18ZM209.564 35V30.824L209.456 30.14V23.156C209.456 21.548 209 20.312 208.088 19.448C207.2 18.584 205.868 18.152 204.092 18.152C202.868 18.152 201.704 18.356 200.6 18.764C199.496 19.172 198.56 19.712 197.792 20.384L196.64 18.476C197.6 17.66 198.752 17.036 200.096 16.604C201.44 16.148 202.856 15.92 204.344 15.92C206.792 15.92 208.676 16.532 209.996 17.756C211.34 18.956 212.012 20.792 212.012 23.264V35H209.564ZM203.048 35.18C201.632 35.18 200.396 34.952 199.34 34.496C198.308 34.016 197.516 33.368 196.964 32.552C196.412 31.712 196.136 30.752 196.136 29.672C196.136 28.688 196.364 27.8 196.82 27.008C197.3 26.192 198.068 25.544 199.124 25.064C200.204 24.56 201.644 24.308 203.444 24.308H209.96V26.216H203.516C201.692 26.216 200.42 26.54 199.7 27.188C199.004 27.836 198.656 28.64 198.656 29.6C198.656 30.68 199.076 31.544 199.916 32.192C200.756 32.84 201.932 33.164 203.444 33.164C204.884 33.164 206.12 32.84 207.152 32.192C208.208 31.52 208.976 30.56 209.456 29.312L210.032 31.076C209.552 32.324 208.712 33.32 207.512 34.064C206.336 34.808 204.848 35.18 203.048 35.18ZM242.571 15.92C244.107 15.92 245.439 16.22 246.567 16.82C247.719 17.396 248.607 18.284 249.231 19.484C249.879 20.684 250.203 22.196 250.203 24.02V35H247.647V24.272C247.647 22.28 247.167 20.78 246.207 19.772C245.271 18.74 243.939 18.224 242.211 18.224C240.915 18.224 239.787 18.5 238.827 19.052C237.891 19.58 237.159 20.36 236.631 21.392C236.127 22.4 235.875 23.624 235.875 25.064V35H233.319V24.272C233.319 22.28 232.839 20.78 231.879 19.772C230.919 18.74 229.575 18.224 227.847 18.224C226.575 18.224 225.459 18.5 224.499 19.052C223.539 19.58 222.795 20.36 222.267 21.392C221.763 22.4 221.511 23.624 221.511 25.064V35H218.955V16.1H221.403V21.212L221.007 20.312C221.583 18.944 222.507 17.876 223.779 17.108C225.075 16.316 226.599 15.92 228.351 15.92C230.199 15.92 231.771 16.388 233.067 17.324C234.363 18.236 235.203 19.616 235.587 21.464L234.579 21.068C235.131 19.532 236.103 18.296 237.495 17.36C238.911 16.4 240.603 15.92 242.571 15.92Z" fill="#323264"/>
</g>
<defs>
<clipPath id="clip0_88415_3419">
<rect width="254" height="60" fill="white"/>
</clipPath>
</defs>
</svg>
